<?xml version="1.0" encoding="utf-8"?>
<!-- Generator: Adobe Illustrator 25.0.0, SVG Export Plug-In . SVG Version: 6.00 Build 0)  -->
<svg version="1.1" id="Layer_1" xmlns="http://www.w3.org/2000/svg" xmlns:xlink="http://www.w3.org/1999/xlink" x="0px" y="0px"
	 viewBox="0 0 24 24" style="enable-background:new 0 0 24 24;" xml:space="preserve">
<style type="text/css">
	.st0{fill-rule:evenodd;clip-rule:evenodd;}
</style>
<g>
	<path class="st0" d="M19.2,17.6L19.2,17.6l-2.3-4.1h2c0.4,0,0.7-0.3,0.7-0.7l0,0c0-0.4-0.3-0.7-0.7-0.7h-2.8l-0.4-0.7l0,0h3.2
		c0.4,0,0.7-0.3,0.7-0.7c0-0.4-0.3-0.7-0.7-0.7h-2.4l2.4-4.4l0,0c0.1-0.3,0.3-0.6,0.4-0.9v0v0C19.4,4,19.3,3.4,18.9,3
		c-0.3-0.3-0.7-0.4-1.2-0.5c-0.4,0-0.8,0-1.2,0c-0.3,0-0.7,0-1,0c-0.3,0-0.5,0-0.7,0.1c-0.3,0.1-0.6,0.3-0.8,0.5
		c-0.1,0.1-0.2,0.3-0.3,0.4L12,6.9l-1.7-3.3c-0.1-0.2-0.2-0.3-0.3-0.4C9.8,2.9,9.6,2.7,9.3,2.6C9,2.6,8.8,2.5,8.5,2.5L12,9.3
		l2.8-5.2c0.1-0.1,0.1-0.2,0.2-0.2c0-0.1,0.1-0.1,0.3-0.2c0.1,0,0.3-0.1,0.5-0.1c0.2,0,0.5,0,0.9,0c0.5,0,0.8,0,1.1,0
		c0.2,0,0.4,0.1,0.5,0.2c0.1,0.1,0.1,0.2,0.1,0.4c-0.1,0.2-0.2,0.4-0.3,0.7l-3.5,6.5l4.8,8.7c0,0,0,0,0.1-0.1
		c0.4-0.4,0.4-0.9,0.3-1.4C19.5,18.2,19.3,17.9,19.2,17.6z"/>
	<path class="st0" d="M9,19.9c0,0.1-0.1,0.2-0.1,0.2c-0.1,0.1-0.1,0.1-0.3,0.2c-0.1,0-0.3,0.1-0.5,0.1c-0.2,0-0.5,0-0.9,0
		c-0.5,0-0.8,0-1.1,0c-0.3,0-0.4-0.1-0.5-0.2c-0.1-0.1-0.1-0.2-0.1-0.4c0-0.2,0.1-0.4,0.3-0.7l3.7-6.9L5.1,3.9c0,0,0,0-0.1,0.1
		C4.6,4.4,4.5,4.9,4.7,5.5C4.8,5.7,4.9,6,5,6.3l0,0l1.9,3.4H5.3c-0.4,0-0.7,0.3-0.7,0.7c0,0.4,0.3,0.7,0.7,0.7h2.4L8.1,12H5.2
		c-0.4,0-0.7,0.3-0.7,0.7l0,0c0,0.4,0.3,0.7,0.7,0.7h2.4l-2.8,5.2l0,0c-0.1,0.3-0.3,0.6-0.4,0.9c-0.1,0.6,0,1.1,0.4,1.5
		c0.3,0.3,0.7,0.4,1.2,0.5c0.4,0,0.8,0,1.2,0c0.3,0,0.6,0,1,0c0.3,0,0.5,0,0.7-0.1c0.3-0.1,0.6-0.2,0.8-0.5c0.1-0.2,0.2-0.3,0.3-0.5
		l1.9-3.7l1.9,3.7c0.1,0.2,0.2,0.3,0.3,0.5c0.2,0.2,0.5,0.4,0.8,0.5c0.2,0.1,0.5,0.1,0.8,0.1h0l-3.8-7.3L9,19.9z"/>
</g>
</svg>
